<svg width="631" height="630" viewBox="0 0 631 630" xmlns="http://www.w3.org/2000/svg"><title>ImToken</title><defs><linearGradient x1="50%" y1="0%" x2="50%" y2="100%" id="a"><stop stop-color="#34B2C0" offset="0%"/><stop stop-color="#0167BA" offset="50.032%"/><stop stop-color="#33418A" offset="100%"/></linearGradient></defs><g fill="none" fill-rule="evenodd"><rect fill="url(#a)" width="630" height="630" rx="100"/><path d="M630.47 176.758c-27.747-.605-63.01 6.509-105.788 21.34-42.778 14.832-72.019 29.8-87.723 44.906-8.488 30.962-20.766 56.028-36.833 75.2-16.066 19.17-38.114 32.02-66.142 38.547-19.373 3.59-37.942 3.157-55.707-1.296-17.766-4.453-31.419-10.622-40.96-18.508-18.09-16.777-27.134-35.703-27.134-56.777 0-21.075 7.115-37.555 21.345-49.442 5.75-5.212 14.979-8.325 27.687-9.34 12.708-1.016 22.362 2.098 28.963 9.34 5.408 4.417 8.536 10.172 9.384 17.268 1.271 10.643-5.409 16.513-6.785 21.71-1.376 5.196-2.6 10.464 0 16.75 1.733 4.19 5.24 8.249 10.522 12.174 9.559 5.784 19.153 7.278 28.782 4.482 9.63-2.796 17.777-7.351 24.445-13.666 6.002-7.37 9.418-14.455 10.248-21.253 1.245-10.197 1.009-20.84-.983-28.884-1.993-8.044-5.425-16.932-14.131-26.531-8.706-9.6-15.42-15.038-20.283-17.784-4.863-2.746-22.344-11.872-44.392-10.1-14.698 1.18-28.15 3.798-40.356 7.851-15.244 5.831-29.693 15.507-43.348 29.028-13.654 13.52-22.766 27.99-27.334 43.41-6.74 19.21-8.473 40.306-5.2 63.288 3.275 22.982 10.586 45.523 21.934 67.622 11.566 20.4 27.11 39 46.636 55.8 19.526 16.801 43.029 29.274 70.51 37.418 31.855 8.792 64.597 10.99 98.227 6.594 33.63-4.396 65.644-13.229 96.04-26.5 33.464-17.323 59.144-33.873 77.041-49.648 17.897-15.776 35.009-34.514 51.335-56.213V176.758z" fill="#FFF"/><path d="M283.949 226.705c8.227 7.098 12.765 14.195 13.613 21.29 1.271 10.644-5.409 16.514-6.785 21.71-1.376 5.197-2.6 10.465 0 16.751 1.733 4.19 5.24 8.249 10.522 12.174 10 6.408 19.593 7.902 28.782 4.482s14.021-5.614 14.496-6.584c-9.008.399-15.403.399-19.184 0-6.478-.682-12.75-1.679-16.356-4.221-10.15-7.159-7.932-17.42-5.035-22.601 2.897-5.18 8.497-13.887 2.897-24.268-3.734-6.92-11.384-13.165-22.95-18.733z" fill="#F7F7F7"/><path d="M630.47 342.867c-27.065 28.786-48.21 48.993-63.438 60.618-22.84 17.439-40.899 28.194-75.257 41.234-34.359 13.04-50.049 19.07-91.649 22.33-18.357 1.438-49.388 4.329-85.365-6.468-18.375-5.514-31.418-8.68-58.159-28.902-26.74-20.222-37.517-34.661-46.419-50.168-8.902-15.506-16.808-33.596-19.502-59.227-2.693-25.63-1.501-34.183 4.55-54.09 6.05-19.91 13.624-28.932 21.784-37.466 8.16-8.533 23.287-18 34.257-22.988 10.97-4.988 11.425-5.801 35.58-9.98 16.103-2.786 30.278-3.708 42.525-2.766-14.896-7.915-29.693-11.282-44.392-10.1-14.698 1.18-28.15 3.798-40.356 7.851-15.244 5.831-29.693 15.507-43.348 29.028-13.654 13.52-22.766 27.99-27.334 43.41-6.74 19.21-8.473 40.306-5.2 63.288 3.275 22.982 10.586 45.523 21.934 67.622 11.566 20.4 27.11 39 46.636 55.8 19.526 16.801 43.029 29.274 70.51 37.418 31.855 8.792 64.597 10.99 98.227 6.594 33.63-4.396 65.644-13.229 96.04-26.5 33.464-17.323 59.144-33.873 77.041-49.648 17.897-15.776 35.009-34.514 51.335-56.213v-20.677z" fill="#F7F7F7"/><path d="M627.842 176.788c-18.497 5.811-32.645 10.98-42.443 15.506-9.797 4.527-19.422 12.361-28.874 23.504-9.747 12.717-17.56 21.418-23.436 26.1-8.815 7.025-15.008 12.308-29.639 16.19-14.63 3.884-24.19 3.14-37.175 1.543-8.658-1.064-19.006-4.373-31.045-9.928l1.795-6.688c13.48-13.821 43.009-28.892 88.587-45.213 20.026-7.17 32.194-10.368 54.825-15.408 15.088-3.36 30.89-5.229 47.405-5.606z" fill="#F7F7F7"/></g></svg>