<?xml version="1.0" encoding="UTF-8"?>
<svg width="68px" height="68px" viewBox="0 0 68 68" version="1.1" xmlns="http://www.w3.org/2000/svg" xmlns:xlink="http://www.w3.org/1999/xlink">
    <!-- Generator: Sketch 49.2 (51160) - http://www.bohemiancoding.com/sketch -->
    <title>ImToken</title>
    <desc>Created with Sketch.</desc>
    <defs>
        <circle id="path-1" cx="34" cy="34" r="34"></circle>
    </defs>
    <g id="NEW-Crowd-Sale" stroke="none" stroke-width="1" fill="none" fill-rule="evenodd">
        <g id="Korea-page" transform="translate(-970.000000, -481.000000)">
            <g id="Group-8" transform="translate(129.000000, 5.000000)">
                <g id="Video-instructon-Copy" transform="translate(232.000000, 475.000000)">
                    <g id="Group-6" transform="translate(609.000000, 1.000000)">
                        <g id="ImToken">
                            <mask id="mask-2" fill="white">
                                <use xlink:href="#path-1"></use>
                            </mask>
                            <use id="Mask" fill="#FFFFFF" xlink:href="#path-1"></use>
                            <path d="M67.088226,18.798076 C64.1356812,18.7337752 60.3833992,19.4902811 55.8313803,21.067594 C51.2793613,22.6449068 48.1678273,24.2368023 46.4967782,25.8432805 C45.5934972,29.1360203 44.2870289,31.8018107 42.5773736,33.8406518 C40.8677182,35.8794928 38.52164,37.2459989 35.539139,37.9401701 C33.4777165,38.3218959 31.5018011,38.2759681 29.6113929,37.8023865 C27.7209846,37.328805 26.2681524,36.6727032 25.2528962,35.8340811 C23.3279897,34.049813 22.3655365,32.0370606 22.3655365,29.795824 C22.3655365,27.5545875 23.1226419,25.801908 24.6368526,24.5377857 C25.2487077,23.9834801 26.2307616,23.6523486 27.5830141,23.5443911 C28.9352666,23.4364336 29.9625783,23.7675651 30.6649492,24.5377857 C31.2404558,25.0074362 31.5733041,25.6195536 31.663494,26.3741378 C31.798779,27.506014 31.0879744,28.1303711 30.9415646,28.6830114 C30.7951548,29.2356516 30.6649492,29.795824 30.9415646,30.4643703 C31.1259748,30.9100678 31.4991719,31.3416404 32.0611556,31.7590882 C33.0783361,32.3741777 34.0992405,32.5330564 35.123869,32.2357244 C36.1484974,31.9383924 37.01556,31.4539477 37.7250569,30.7823902 C38.3637017,29.9985092 38.7271928,29.2450858 38.8155303,28.52212 C38.9480366,27.4376711 38.9228976,26.3056966 38.71091,25.4502924 C38.4989225,24.5948881 38.1336433,23.6496317 37.207247,22.6287222 C36.2808506,21.6078126 35.5663827,21.0295123 35.0489325,20.7374551 C34.5314823,20.4453978 32.6713554,19.4748517 30.32526,19.6632521 C28.7611964,19.7888523 27.3297665,20.0671956 26.0309702,20.4982819 C24.4088552,21.1184264 22.8713007,22.1474545 21.4183065,23.5853661 C19.9653123,25.0232778 18.9957727,26.5621454 18.5096877,28.2019689 C17.79245,30.2449382 17.6080281,32.4884931 17.9564217,34.9326336 C18.3048154,37.3767742 19.0828016,39.7739514 20.2903805,42.1241655 C21.5210212,44.2936341 23.1751931,46.2717409 25.2528962,48.0584859 C27.3305993,49.8452309 29.8315763,51.1716936 32.7558273,52.0378741 C36.1454625,52.9729082 39.629581,53.2066668 43.2081829,52.7391497 C46.7867847,52.2716326 50.1932836,51.332216 53.4276794,49.9208997 C56.9886151,48.0785599 59.7212932,46.3185192 61.6257138,44.6407777 C63.5301344,42.9630362 65.3509718,40.9702984 67.088226,38.6625643 C67.6019095,37.8610204 67.8587513,37.428175 67.8587513,37.3640281 C67.8587513,37.3325314 70.2297658,35.9308866 70.1059219,32.9462767 C70.0203356,30.8836688 69.014437,26.1676019 67.088226,18.798076 Z" id="Path-2" fill="#21A2E8" mask="url(#mask-2)"></path>
                        </g>
                    </g>
                </g>
            </g>
        </g>
    </g>
</svg>