<svg xmlns="http://www.w3.org/2000/svg" xmlns:xlink="http://www.w3.org/1999/xlink" width="69" height="68" viewBox="0 0 69 68"><defs><path id="w0hxa" d="M970 515a34 34 0 1 1 68 0 34 34 0 0 1-68 0z"/><path id="w0hxc" d="M1037.1 499.8s-4.44-.1-11.26 2.26c-6.83 2.37-9.34 4.78-9.34 4.78s-1.35 4.94-3.92 8c-2.56 3.05-7.04 4.1-7.04 4.1s-3.09.57-5.92-.14c-2.84-.71-4.36-1.97-4.36-1.97s-2.89-2.68-2.89-6.04 2.27-5.26 2.27-5.26.92-.83 2.95-.99c2.03-.16 3.08 1 3.08 1s.86.7 1 1.83c.13 1.13-.58 1.76-.72 2.3-.15.56-.28 1.12 0 1.79.27.67 1.12 1.3 1.12 1.3s1.52.92 3.06.47a7.04 7.04 0 0 0 2.6-1.45s.96-1.18 1.09-2.26c.13-1.09.1-2.22-.1-3.07a6.2 6.2 0 0 0-1.5-2.83 9.49 9.49 0 0 0-2.17-1.89 8.53 8.53 0 0 0-4.72-1.07c-2.35.19-4.3.83-4.3.83s-2.43.93-4.6 3.1c-2.19 2.15-2.92 4.6-2.92 4.6s-1.07 3.07-.55 6.74c.52 3.66 2.33 7.19 2.33 7.19s1.85 3.25 4.97 5.93c3.11 2.68 7.5 3.98 7.5 3.98s5.08 1.4 10.45.7c5.37-.7 10.22-2.81 10.22-2.81s5.34-2.77 8.2-5.28c2.86-2.52 5.46-5.98 5.46-5.98s.77-1.2.77-1.3c0-.03.34-1.63.21-4.61-.13-3.1-.98-13.96-.98-13.96z"/><path id="w0hxd" d="M1037.19 493.8l.82.83"/><clipPath id="w0hxb"><use xlink:href="#w0hxa"/></clipPath></defs><g><g transform="translate(-970 -481)"><g><use fill="#fff" xlink:href="#w0hxa"/></g><g clip-path="url(#w0hxb)"><use fill="#21a2e8" xlink:href="#w0hxc"/></g><g clip-path="url(#w0hxb)"><use fill="#fff" fill-opacity="0" stroke="#969696" stroke-linecap="square" stroke-miterlimit="50" xlink:href="#w0hxd"/></g></g></g></svg>