<?xml version="1.0" encoding="UTF-8"?>
<svg width="68px" height="68px" viewBox="0 0 68 68" version="1.1" xmlns="http://www.w3.org/2000/svg" xmlns:xlink="http://www.w3.org/1999/xlink">
    <!-- Generator: Sketch 49.2 (51160) - http://www.bohemiancoding.com/sketch -->
    <title>Jaxx</title>
    <desc>Created with Sketch.</desc>
    <defs></defs>
    <g id="NEW-Crowd-Sale" stroke="none" stroke-width="1" fill="none" fill-rule="evenodd">
        <g id="Korea-page" transform="translate(-677.000000, -481.000000)">
            <g id="Group-8" transform="translate(129.000000, 5.000000)">
                <g id="Video-instructon-Copy" transform="translate(232.000000, 475.000000)">
                    <g id="Group-7" transform="translate(316.000000, 1.000000)">
                        <g id="Jaxx">
                            <rect id="Rectangle-Copy" fill="#FFFFFF" x="0" y="0" width="68" height="68" rx="7"></rect>
                            <path d="M46.2703823,28.0702837 L53.3585435,19.0132727 C54.038874,18.1438249 55.2950162,17.9900648 56.1649705,18.6697476 L59.1651471,21.0137042 C60.0351106,21.6933942 60.1897987,22.949439 59.5107437,23.8198983 L51.4933053,34.099574 C51.3833985,34.2404602 51.2961893,34.3976602 51.2348357,34.565482 L51.1899181,34.6883461 C51.1585643,34.7741088 51.1476307,34.8659988 51.1579849,34.9567242 C51.1596518,34.9713297 51.1569294,34.9861006 51.1501651,34.9991522 C51.1473502,35.0045837 51.1439557,35.0095195 51.1400966,35.0139232 L59.0810605,45.1778936 C59.7611014,46.0483062 59.6067746,47.3051971 58.736362,47.985238 L55.736204,50.3292183 C54.8657913,51.0092592 53.6089004,50.8549324 52.9288595,49.9845198 L46.3535969,41.5685674 C46.3240999,41.5736879 46.2927784,41.5699498 46.2637738,41.5559128 L46.2574712,41.5528626 C46.1121314,41.4825242 45.9425311,41.4828712 45.7974803,41.5538037 C45.6462819,41.6277424 45.5138684,41.7350826 45.410247,41.8677119 L39.0700303,49.9828192 C38.3899894,50.8532318 37.1330985,51.0075586 36.2626859,50.3275177 L33.2625279,47.9835374 C32.3921152,47.3034965 32.2377884,46.0466056 32.9178293,45.1761929 L40.5651408,35.3880805 C40.6587127,35.268314 40.7248954,35.1294929 40.75903,34.9813897 C40.792856,34.834625 40.7834983,34.6812081 40.7320856,34.5396425 L40.6989399,34.4483755 C40.6931657,34.432476 40.6888886,34.4160721 40.6861644,34.3993773 C40.681426,34.3703389 40.6814784,34.3416254 40.6857414,34.3140432 L32.4881454,23.8215988 C31.8081045,22.9511861 31.9624313,21.6942952 32.832844,21.0142543 L35.8245443,18.6768818 C36.694957,17.996841 37.9518479,18.1511678 38.6318888,19.0215804 C38.6340855,19.0243921 38.6362747,19.0272096 38.6384563,19.030033 L45.3942372,27.7730896 C45.4994691,27.9092764 45.6342659,28.0197762 45.7884506,28.0962463 L45.8182457,28.1110236 C45.945612,28.1741927 46.0964285,28.1678857 46.218076,28.0943031 C46.2348736,28.0841425 46.2524232,28.0761581 46.2703823,28.0702837 Z" id="Combined-Shape" fill="#16B1EF"></path>
                            <path d="M20.5487159,11 L23.999819,10.999994 C25.1025549,10.999994 25.9972254,11.8925624 25.9998194,12.9952953 C26.0395186,29.8715361 26.0379183,39.2964653 25.9950187,41.270083 C25.9630187,42.7422593 26.0978656,47.5031587 23.8780379,50.668186 C21.4610088,54.1143828 16.6434628,55.9326341 15.8270963,56.3374806 C15.1814894,56.6576453 13.779057,57.1696353 11.619799,57.8734505 L11.6197957,57.8734402 C10.5696125,58.2157499 9.44077405,57.6419051 9.09846437,56.5917219 C9.03323048,56.3915887 9,56.1824119 9,55.9719154 L8.99999302,52.5585523 C8.99999302,51.7388283 9.50019551,51.0020942 10.2620854,50.6996521 C13.3568421,49.4711481 15.2486604,48.6493406 15.9375402,48.2342295 C17.1045991,47.5309732 17.6571152,46.8799478 18.1498641,45.6834908 C18.6426129,44.4870338 18.5487159,43.707988 18.5487159,41.8939623 C18.5487159,32.2626416 18.5487159,22.6313208 18.5487159,13 L18.5487159,13 C18.5487159,11.8954305 19.4441464,11 20.5487159,11 Z" id="Rectangle-3" fill="#16B1EF"></path>
                        </g>
                    </g>
                </g>
            </g>
        </g>
    </g>
</svg>