<svg width="631" height="631" viewBox="0 0 631 631" xmlns="http://www.w3.org/2000/svg"><title>Jaxx</title><g fill="none" fill-rule="evenodd"><rect fill="#F17221" width="631" height="631" rx="100"/><path d="M422.483 255.649l70.873-90.57a9 9 0 0 1 12.63-1.546l42.047 32.851a9 9 0 0 1 1.555 12.628L468.27 313.26c-1.104 2.257-1.677 3.812-1.72 4.665-.06 1.221-.05 1.993.235 2.469l78.876 100.957a9 9 0 0 1-1.551 12.633l-42.048 32.851a9 9 0 0 1-12.633-1.551l-66-84.476c-1.087-1.19-2.445-1.786-4.072-1.786-1.758 0-3.166.695-4.224 2.086l-65.766 84.176a9 9 0 0 1-12.633 1.551l-42.048-32.851a9 9 0 0 1-1.55-12.633l77.682-99.43c.846-1.019 1.17-2.398.97-4.138-.2-1.74-.877-3.626-2.028-5.657l.008-.002-80.56-103.112a9 9 0 0 1 1.55-12.633l42.011-32.822a9 9 0 0 1 12.662 1.59l69.618 90.087c1.871 1.549 3.307 2.267 4.308 2.156.892-.1 1.933-.68 3.126-1.741zM179.914 95.566h43.384c7.18 0 13 5.82 13 13v266.801c.84 34.551-9.741 67.422-31.745 98.612-20.112 28.506-57.098 48.378-110.958 59.615-7.028 1.466-13.915-3.043-15.381-10.071a13 13 0 0 1-.274-2.655V478.09a13 13 0 0 1 10.46-12.749c23.704-4.724 41.765-13.258 54.183-25.602 14.185-14.1 22.295-33.635 24.33-58.606V108.566c0-7.18 5.821-13 13-13z" fill="#191F27"/></g></svg>