<svg xmlns="http://www.w3.org/2000/svg" xmlns:xlink="http://www.w3.org/1999/xlink" width="1039" height="549" viewBox="0 0 1039 549"><defs><path id="9o2tb" d="M372.12 513.55A33.57 33.57 0 0 1 405.71 480a33.57 33.57 0 0 1 33.58 33.55 33.57 33.57 0 0 1-33.59 33.55 33.57 33.57 0 0 1-33.58-33.55z"/><path id="9o2tc" d="M408.15 524.42c-.8.19-1.63.28-2.45.28-5.86 0-10.85-4.46-11.2-11.07.08-1.26.28-2.52.6-3.74l-9.1-3.86a23.36 23.36 0 0 0-1.42 8.07c0 11.35 9.73 20.54 21.08 20.54 2.62 0 5.2-.49 7.63-1.46zm-11-30.1l5.1 8.67a10.6 10.6 0 0 1 3.45-.58c5.18 0 10.68 4.34 11.2 9.69l-14.74.06 23 9.78a20.95 20.95 0 0 0 1.59-8.72c0-11.39-9.7-20.75-21.05-20.75-2.96 0-5.87.63-8.56 1.86z"/><path id="9o2td" d="M569.21 502.94l25.18-19.03 3.46 10.12-2.06 10.83 1.37.99-1.77 1.3 1.28 1.68-2.08 1.7 1.36 1.02-2.9 3.52-13.84-3.73z"/><path id="9o2te" d="M559.14 503.03l-25.04-19.49-3.68 10.1 1.98 11.19-1.25.86 1.81 1.55-1.5 1.3 2.04 2.02-1.1.87 2.9 3.73 13.83-3.73z"/><path id="9o2tf" d="M550.17 540.4l11.04-7.71h7.53l9.85 7.43-8.2 4.8-10.65.36z"/><path id="9o2tg" d="M559.9 533.68l1.3-1.02h7.47l1.34 1.02.85 5.9-.85-.62H559.9l-.63.85z"/><path id="9o2th" d="M677 488a7 7 0 0 1 7-7h54a7 7 0 0 1 7 7v54a7 7 0 0 1-7 7h-54a7 7 0 0 1-7-7z"/><path id="9o2ti" d="M720.81 496.71h4.42c.3 0 .6.07.86.2a2 2 0 0 1 1.77 1.98v33.2a2 2 0 0 1-2 2h-5.3a2 2 0 0 1-2-2v-33.2a2 2 0 0 1 .96-1.7 2 2 0 0 1 1.29-.48z"/><path id="9o2tj" d="M686 494c0-1.1.9-2 2-2h13.03a2 2 0 0 1 2 2v42.97a2 2 0 0 1-2 2H686z"/><path id="9o2tk" d="M857.4 486.96l-16.13 27.1 16.14 10.5 16.8-10.5z"/><path id="9o2tl" d="M857.48 527.69l-16.6-9.87 16.6 24.44 16.96-24.72z"/><path id="9o2ta" d="M970 515a34 34 0 1 1 68 0 34 34 0 0 1-68 0z"/><path id="9o2tn" d="M1037.1 499.8s-4.44-.1-11.26 2.26c-6.83 2.37-9.34 4.78-9.34 4.78s-1.35 4.94-3.92 8c-2.56 3.05-7.04 4.1-7.04 4.1s-3.09.57-5.92-.14c-2.84-.71-4.36-1.97-4.36-1.97s-2.89-2.68-2.89-6.04 2.27-5.26 2.27-5.26.92-.83 2.95-.99c2.03-.16 3.08 1 3.08 1s.86.7 1 1.83c.13 1.13-.58 1.76-.72 2.3-.15.56-.28 1.12 0 1.79.27.67 1.12 1.3 1.12 1.3s1.52.92 3.06.47a7.04 7.04 0 0 0 2.6-1.45s.96-1.18 1.09-2.26c.13-1.09.1-2.22-.1-3.07a6.2 6.2 0 0 0-1.5-2.83 9.49 9.49 0 0 0-2.17-1.89 8.53 8.53 0 0 0-4.72-1.07c-2.35.19-4.3.83-4.3.83s-2.43.93-4.6 3.1c-2.19 2.15-2.92 4.6-2.92 4.6s-1.07 3.07-.55 6.74c.52 3.66 2.33 7.19 2.33 7.19s1.85 3.25 4.97 5.93c3.11 2.68 7.5 3.98 7.5 3.98s5.08 1.4 10.45.7c5.37-.7 10.22-2.81 10.22-2.81s5.34-2.77 8.2-5.28c2.86-2.52 5.46-5.98 5.46-5.98s.77-1.2.77-1.3c0-.03.34-1.63.21-4.61-.13-3.1-.98-13.96-.98-13.96z"/><path id="9o2to" d="M1037.19 493.8l.82.83"/><clipPath id="9o2tm"><use xlink:href="#9o2ta"/></clipPath></defs><g><g><g><use fill="#fff" xlink:href="#9o2tb"/></g><g><g><use fill="#0fbaf4" xlink:href="#9o2tc"/></g></g></g><g/><g><use fill="#f5f5f5" xlink:href="#9o2td"/></g><g><use fill="#f5f5f5" xlink:href="#9o2te"/></g><g><use fill="#f5f5f5" xlink:href="#9o2tf"/></g><g><use fill="#15b1f0" xlink:href="#9o2tg"/></g><g><g><use fill="#fff" xlink:href="#9o2th"/></g><g><use fill="#16b1ef" xlink:href="#9o2ti"/></g><g><use fill="#16b1ef" xlink:href="#9o2tj"/></g></g><g/><g><use fill="#1aa8eb" xlink:href="#9o2tk"/></g><g><use fill="#1aa8eb" xlink:href="#9o2tl"/></g><g><g><use fill="#fff" xlink:href="#9o2ta"/></g><g clip-path="url(#9o2tm)"><use fill="#21a2e8" xlink:href="#9o2tn"/></g><g clip-path="url(#9o2tm)"><use fill="#fff" fill-opacity="0" stroke="#969696" stroke-linecap="square" stroke-miterlimit="50" xlink:href="#9o2to"/></g></g></g></svg>