<?xml version="1.0" encoding="UTF-8"?>
<svg width="68px" height="63px" viewBox="0 0 68 63" version="1.1" xmlns="http://www.w3.org/2000/svg" xmlns:xlink="http://www.w3.org/1999/xlink">
    <!-- Generator: Sketch 49.2 (51160) - http://www.bohemiancoding.com/sketch -->
    <title>MetaMask</title>
    <desc>Created with Sketch.</desc>
    <defs></defs>
    <g id="NEW-Crowd-Sale" stroke="none" stroke-width="1" fill="none" fill-rule="evenodd">
        <g id="Korea-page" transform="translate(-530.000000, -483.000000)">
            <g id="Group-8" transform="translate(129.000000, 5.000000)">
                <g id="Video-instructon-Copy" transform="translate(232.000000, 475.000000)">
                    <g id="Group-3" transform="translate(168.500000, 3.000000)">
                        <g id="MetaMask">
                            <polygon id="Combined-Shape" fill="#FFFFFF" points="4.86523801 0.578066814 25.5056009 9.40310034 43.6419442 9.40310034 64.9677634 0.914165229 68.3584372 10.6445891 66.2674784 21.8315355 67.5937124 22.7833339 65.9613579 24.2534042 67.0255735 25.7142505 64.9677634 27.552703 66.502425 28.599974 63.5529513 32.1651979 68.3584372 46.807062 64.272644 62.2583245 49.2198722 57.2880818 40.7779827 61.924632 30.1247168 62.2583245 23.2969252 59.1941378 20.5647835 57.2880818 4.65791999 62.2583245 0.56684624 46.807062 5.5326959 32.1651979 2.62904028 28.599974 4.02201886 27.552703 2.10589537 25.7142505 3.56550263 24.2534042 1.70044891 22.7833339 2.83844469 21.8315355 0.937697042 10.6445891"></polygon>
                            <polygon id="Path-2" fill="#F6F6F6" points="39.7110182 19.9357535 64.8917663 0.907968034 68.34849 11.0316847 66.2915865 21.8612418 67.6625665 22.843816 65.8862555 24.1439307 67.1722236 25.8324581 65.0903878 27.5373066 66.4497918 28.5497529 63.5448588 32.0705627 49.7154512 28.3332247"></polygon>
                            <polygon id="Path-2" fill="#F6F6F6" transform="translate(15.278468, 16.356100) scale(-1, 1) translate(-15.278468, -16.356100) " points="0.919464086 20.0277855 25.956259 0.539149175 29.6374718 10.6360335 27.6582377 21.8277964 28.9049879 22.6936072 27.0947014 24.2359627 28.6028197 25.5443756 26.5595595 27.5630718 27.9420248 28.6244495 25.0481171 32.1730511 10.9238971 28.4252567"></polygon>
                            <polygon id="Path-3" fill="#F6F6F6" points="20.6657238 57.3989742 31.705127 49.6917357 39.2308727 49.6917357 49.0814891 57.1199897 40.8876916 61.9168679 30.2346576 62.2852497"></polygon>
                            <polygon id="Path-4" fill="#14B4F1" points="30.4005013 50.6835606 31.7053069 49.6593584 39.1697156 49.6593584 40.5104959 50.6835606 41.3582418 56.5818069 40.5104959 55.9626808 30.4005013 55.9626808 29.773101 56.8055701"></polygon>
                            <path d="M22.0136799,39.4921551 C22.2367858,39.4921551 24.0333282,38.6614367 27.4033072,37 L29.5312819,41.3655666 C24.2964414,40.1166256 21.7905741,39.4921551 22.0136799,39.4921551 Z" id="Path-8" fill="#14B4F1"></path>
                            <polygon id="Path-9" fill="#14B4F1" points="42.6851853 37.3464544 40.5675818 41.8631488 47.9445835 39.7808688"></polygon>
                        </g>
                    </g>
                </g>
            </g>
        </g>
    </g>
</svg>