<?xml version="1.0" encoding="UTF-8"?>
<svg width="68px" height="68px" viewBox="0 0 68 68" version="1.1" xmlns="http://www.w3.org/2000/svg" xmlns:xlink="http://www.w3.org/1999/xlink">
    <!-- Generator: Sketch 49.2 (51160) - http://www.bohemiancoding.com/sketch -->
    <title>MEW</title>
    <desc>Created with Sketch.</desc>
    <defs></defs>
    <g id="NEW-Crowd-Sale" stroke="none" stroke-width="1" fill="none" fill-rule="evenodd">
        <g id="Korea-page" transform="translate(-372.000000, -480.000000)" fill-rule="nonzero">
            <g id="Group-8" transform="translate(129.000000, 5.000000)">
                <g id="Video-instructon-Copy" transform="translate(232.000000, 475.000000)">
                    <g id="Group-4">
                        <g id="MEW" transform="translate(11.000000, 0.000000)">
                            <ellipse id="Oval" fill="#FFFFFF" cx="33.6992248" cy="33.5521803" rx="33.5837806" ry="33.5521803"></ellipse>
                            <path d="M36.1550388,44.4146987 C35.3502384,44.604152 34.5260634,44.6991596 33.6992248,44.6977952 C27.8430531,44.6977952 22.8579606,40.2416463 22.501133,33.6255757 C22.586214,32.362279 22.7864471,31.1093676 23.0993441,29.8824106 L14.0107335,26.0239098 C13.0627368,28.6100881 12.5795403,31.343259 12.5834228,34.0974032 C12.5834228,45.4422342 22.3122242,54.6376286 33.66774,54.6376286 C36.2807485,54.6421487 38.8705215,54.1474586 41.2975552,53.1802058 L36.1550388,44.4146987 Z M33.6992248,12.466732 C30.7475722,12.4625181 27.8298634,13.0955837 25.1458557,14.322587 L30.2463924,22.9832435 C31.3573414,22.600966 32.5242274,22.4060774 33.6992248,22.4065654 C38.8837209,22.4065654 44.383065,26.7473787 44.9078116,32.0947575 L30.1624329,32.1576678 L53.1568277,41.9402254 C54.3049514,39.1792301 54.8488546,36.2048773 54.7520572,33.2166585 C54.7520572,21.8298873 45.0547406,12.466732 33.6992248,12.466732 Z" id="Shape" fill="#0FBBF4"></path>
                        </g>
                    </g>
                </g>
            </g>
        </g>
    </g>
</svg>