<svg xmlns="http://www.w3.org/2000/svg" xmlns:xlink="http://www.w3.org/1999/xlink" width="68" height="68" viewBox="0 0 68 68"><defs><path id="d1s7a" d="M372.12 513.55A33.57 33.57 0 0 1 405.71 480a33.57 33.57 0 0 1 33.58 33.55 33.57 33.57 0 0 1-33.59 33.55 33.57 33.57 0 0 1-33.58-33.55z"/><path id="d1s7b" d="M408.15 524.42c-.8.19-1.63.28-2.45.28-5.86 0-10.85-4.46-11.2-11.07.08-1.26.28-2.52.6-3.74l-9.1-3.86a23.36 23.36 0 0 0-1.42 8.07c0 11.35 9.73 20.54 21.08 20.54 2.62 0 5.2-.49 7.63-1.46zm-11-30.1l5.1 8.67a10.6 10.6 0 0 1 3.45-.58c5.18 0 10.68 4.34 11.2 9.69l-14.74.06 23 9.78a20.95 20.95 0 0 0 1.59-8.72c0-11.39-9.7-20.75-21.05-20.75-2.96 0-5.87.63-8.56 1.86z"/></defs><g><g transform="translate(-372 -480)"><g><use fill="#fff" xlink:href="#d1s7a"/></g><g><g><use fill="#0fbaf4" xlink:href="#d1s7b"/></g></g></g></g></svg>