<svg xmlns="http://www.w3.org/2000/svg" xmlns:xlink="http://www.w3.org/1999/xlink" width="255" height="347" viewBox="0 0 255 347"><defs><path id="a" d="M1508.5 643c-39.91 0-70.76-11-92.54-33.01-21.78-22.01-33.28-55.19-34.5-99.52-.3-9.64-.46-23.3-.46-40.97 0-17.67.15-31.17.46-40.48 1.22-43.38 13.1-76.4 35.64-99.04 22.55-22.65 53.01-33.98 91.4-33.98 38.08 0 68.4 11.33 90.94 33.98 22.55 22.65 34.43 55.66 35.65 99.04.6 18.63.91 32.13.91 40.48 0 8.03-.3 21.69-.91 40.97-1.22 44.33-12.72 77.5-34.5 99.52-21.79 22-52.48 33.01-92.09 33.01zm0-40.97c24.07 0 43.26-7.7 57.58-23.13 14.32-15.42 22.09-39.04 23.3-70.84.62-19.28.92-32.13.92-38.56 0-7.07-.3-19.92-.91-38.56-1.22-31.8-9.07-55.42-23.54-70.84-14.47-15.42-33.59-23.13-57.35-23.13-24.07 0-43.34 7.7-57.8 23.13-14.48 15.42-22.33 39.04-23.54 70.84-.3 9.32-.46 22.17-.46 38.56 0 16.06.15 28.92.46 38.56 1.21 31.8 9.06 55.42 23.53 70.84 14.47 15.42 33.74 23.13 57.81 23.13z"/><path id="b" d="M1429.42 353.53l141.16 221.94"/></defs><use fill="#70b5e9" xlink:href="#a" transform="translate(-1381 -296)"/><use fill="#fff" fill-opacity="0" stroke="#70b5e9" stroke-linecap="square" stroke-miterlimit="50" stroke-width="35" xlink:href="#b" transform="translate(-1381 -296)"/></svg>