<svg width="93" height="93" viewBox="0 0 93 93" xmlns="http://www.w3.org/2000/svg"><title>Logo SVG</title><g fill="none" fill-rule="evenodd"><path fill="#FFF" d="M0 0h93v93H0z"/><path d="M0 60h93v12H0V60zm19.363 6.926h1.2c.757 0 1.353-.203 1.787-.609.435-.406.652-.942.652-1.61 0-.668-.217-1.206-.652-1.615-.434-.41-1.03-.614-1.787-.614h-2.521v6.979h1.321v-2.531zm-.019-1.122v-2.282h1.217c.377 0 .66.109.852.327.191.218.287.494.287.828 0 .328-.096.598-.29.81-.192.211-.475.317-.849.317h-1.217zm13.422 2.614v-6.07h-1.208v7.174h3.906v-1.104h-2.698zm14.87-.443l.45 1.547h1.39l-2.228-7.174h-1.363l-2.237 7.174h1.39l.446-1.547h2.151zm-2.004-1.062l.733-2.543h.027l.728 2.543h-1.488zm16.783.2h-1.287c0 .453-.098.79-.294 1.008-.195.219-.492.328-.89.328-.418 0-.744-.17-.98-.508-.235-.338-.352-.775-.352-1.312v-1.393c0-.534.111-.969.334-1.305.223-.337.533-.506.93-.506.428 0 .745.11.95.328.204.22.306.552.306.999h1.292l.01-.029c.012-.753-.21-1.338-.665-1.753-.455-.415-1.086-.622-1.892-.622-.774 0-1.399.27-1.875.812-.476.54-.714 1.236-.714 2.085v1.384c0 .853.244 1.548.732 2.086.489.538 1.13.807 1.925.807.78 0 1.39-.211 1.833-.632.443-.422.659-1.004.646-1.748l-.009-.03zm12.034-.745V65.26h-2.366v-1.804h2.804v-1.108h-4.083v7.174h4.092v-1.104h-2.813v-2.05h2.366zM24.665 18.26l15 25.98-4.33 2.5-15-25.98z" fill="#06C9FB" fill-rule="nonzero"/><path d="M43.22 36.91c0 4.67-1.262 8.518-3.787 11.547C36.91 51.486 33.623 53 29.576 53c-4.032 0-7.303-1.519-9.812-4.556C17.254 45.407 16 41.562 16 36.91v-6.822c0-4.634 1.25-8.474 3.752-11.52C22.254 15.523 25.514 14 29.532 14c4.047 0 7.34 1.523 9.88 4.57 2.538 3.045 3.808 6.885 3.808 11.52v6.82zm-6.52-6.873c0-2.95-.634-5.371-1.904-7.263-1.27-1.892-3.024-2.838-5.265-2.838-2.21 0-3.931.946-5.164 2.838-1.232 1.892-1.848 4.313-1.848 7.263v6.874c0 3.002.62 5.45 1.86 7.341 1.24 1.892 2.972 2.838 5.197 2.838 2.24 0 3.988-.946 5.242-2.838 1.255-1.892 1.882-4.339 1.882-7.341v-6.874zM76 52.523h-6.667L55.93 26.625l-.137.026v25.872h-6.667v-38.4h6.667l13.403 25.873.137-.027V14.124H76v38.4z" fill="#06C9FB" fill-rule="nonzero"/></g></svg>