<svg xmlns="http://www.w3.org/2000/svg" xmlns:xlink="http://www.w3.org/1999/xlink" width="136" height="188" viewBox="0 0 204 282"><defs><path id="a" d="M1757 1890v-279h185v279z"/><path id="b" d="M1977.62 1796.76c0 46.2-12.13 84.3-36.39 114.28-24.26 29.97-55.84 44.96-94.74 44.96-38.76 0-70.2-15.03-94.32-45.1-24.11-30.06-36.17-68.1-36.17-114.14v-67.52c0-45.86 12.02-83.87 36.07-114.02 24.04-30.15 55.37-45.22 93.99-45.22 38.9 0 70.55 15.07 94.96 45.22 24.4 30.15 36.6 68.16 36.6 114.02zm-62.19-69.14c0-29.13-6.14-53.03-18.43-71.7-12.28-18.68-29.27-28.02-50.95-28.02-21.39 0-38.05 9.34-49.97 28.01-11.93 18.68-17.9 42.58-17.9 71.7v67.86c0 29.64 6 53.8 18 72.47 12 18.68 28.77 28.02 50.3 28.02 21.69 0 38.6-9.34 50.74-28.02 12.14-18.67 18.21-42.83 18.21-72.47z"/></defs><use fill="#25ace9" xlink:href="#a" transform="translate(-1716 -1570)"/><use fill="#25ace9" xlink:href="#b" transform="translate(-1716 -1570)"/></svg>