<svg xmlns="http://www.w3.org/2000/svg" xmlns:xlink="http://www.w3.org/1999/xlink" width="57" height="57" viewBox="0 0 57 57"><defs><path id="a" d="M1508.5 857c-3.91 0-6.94-1.08-9.07-3.23-2.14-2.16-3.27-5.41-3.39-9.76-.03-.94-.04-2.28-.04-4.01s.01-3.05.04-3.97c.12-4.25 1.29-7.48 3.5-9.7 2.21-2.22 5.2-3.33 8.96-3.33 3.73 0 6.7 1.11 8.92 3.33 2.2 2.22 3.37 5.45 3.49 9.7.06 1.83.09 3.15.09 3.97 0 .79-.03 2.12-.09 4.01-.12 4.35-1.25 7.6-3.38 9.76-2.14 2.15-5.15 3.23-9.03 3.23zm0-4.01c2.36 0 4.24-.76 5.65-2.27 1.4-1.51 2.16-3.83 2.28-6.94.06-1.9.09-3.15.09-3.78 0-.7-.03-1.95-.09-3.78-.12-3.11-.89-5.43-2.3-6.94a7.35 7.35 0 0 0-5.63-2.27 7.4 7.4 0 0 0-5.67 2.27c-1.42 1.51-2.19 3.83-2.3 6.94a125.46 125.46 0 0 0 0 7.56c.11 3.11.88 5.43 2.3 6.94a7.4 7.4 0 0 0 5.67 2.27z"/><path id="b" d="M1500.63 828.64l13.74 21.72"/><path id="c" d="M1481 839.5a27.5 27.5 0 1 1 55 0 27.5 27.5 0 0 1-55 0z"/></defs><use fill="#fff" xlink:href="#a" transform="translate(-1480 -811)"/><use fill="#fff" fill-opacity="0" stroke="#fff" stroke-linecap="square" stroke-miterlimit="50" stroke-width="4" xlink:href="#b" transform="translate(-1480 -811)"/><use fill="#fff" fill-opacity="0" stroke="#fff" stroke-miterlimit="50" stroke-width="2" xlink:href="#c" transform="translate(-1480 -811)"/></svg>