<svg xmlns="http://www.w3.org/2000/svg" xmlns:xlink="http://www.w3.org/1999/xlink" width="38" height="38" viewBox="0 0 38 38"><defs><path id="mgtia" d="M1159 308c0-10.48 8.52-19 19-19s19 8.52 19 19-8.52 19-19 19-19-8.52-19-19zm1.54 0c0 9.63 7.83 17.46 17.46 17.46s17.46-7.83 17.46-17.46-7.83-17.46-17.46-17.46a17.48 17.48 0 0 0-17.46 17.46z"/><path id="mgtib" d="M1181.95 307.43l-6.32-3.67c-.58-.33-1.04-.06-1.04.6l.03 7.29c0 .66.48.93 1.05.6l6.28-3.6c.58-.34.58-.88 0-1.22z"/></defs><g><g transform="translate(-1159 -289)"><g><use fill="#1e9df2" xlink:href="#mgtia"/></g><g><use fill="#1e9df2" xlink:href="#mgtib"/></g></g></g></svg>