<svg xmlns="http://www.w3.org/2000/svg" xmlns:xlink="http://www.w3.org/1999/xlink" width="50" height="50" viewBox="0 0 50 50"><defs><path id="a" d="M464 282c13.79 0 25 11.21 25 25s-11.21 25-25 25-25-11.21-25-25 11.21-25 25-25z"/><path id="b" d="M471.28 306.53l-10.55-6.28c-.96-.58-1.74-.12-1.73 1.02l.05 12.46c0 1.13.8 1.6 1.76 1.03l10.47-6.17c.96-.57.96-1.5 0-2.06z"/><path id="c" d="M443 307a21 21 0 1 1 42 0 21 21 0 0 1-42 0z"/></defs><use fill="#1e9df2" xlink:href="#a" transform="translate(-439 -282)"/><use fill="#fff" xlink:href="#b" transform="translate(-439 -282)"/><use fill="#fff" fill-opacity="0" stroke="#fff" stroke-miterlimit="50" xlink:href="#c" transform="translate(-439 -282)"/></svg>