<svg xmlns="http://www.w3.org/2000/svg" xmlns:xlink="http://www.w3.org/1999/xlink" width="93" height="93" viewBox="0 0 93 93"><defs><path id="k3j9a" d="M129 93V0h93v93z"/><path id="k3j9c" d="M129 72V60h93v12zm20.56-5.07c.76 0 1.36-.2 1.79-.61.43-.4.65-.95.65-1.61 0-.67-.22-1.2-.65-1.62a2.5 2.5 0 0 0-1.79-.61h-2.52v6.98h1.32v-2.53zm-1.22-3.4h1.22c.38 0 .66.1.85.32.2.22.29.5.29.83 0 .33-.1.6-.29.8-.2.22-.48.32-.85.32h-1.22zm13.43-1.18h-1.21v7.17h3.9v-1.1h-2.7zm15.32 7.17h1.39l-2.23-7.17h-1.36l-2.24 7.17h1.39l.44-1.55h2.16zm-1.73-5.15h.03l.73 2.54h-1.49zm14.77 2.74c0 .46-.1.8-.3 1.01-.2.22-.49.33-.89.33-.41 0-.74-.17-.98-.5a2.25 2.25 0 0 1-.35-1.32v-1.4c0-.53.11-.96.34-1.3.22-.34.53-.5.93-.5.42 0 .74.1.95.32.2.22.3.55.3 1h1.3v-.03c.02-.75-.2-1.33-.66-1.75a2.7 2.7 0 0 0-1.9-.62c-.77 0-1.4.27-1.87.81a3.04 3.04 0 0 0-.71 2.09v1.38c0 .85.24 1.55.73 2.08.49.54 1.13.81 1.92.81.78 0 1.4-.2 1.84-.63.44-.42.66-1 .64-1.75v-.03zm13.32-1.85h-2.37v-1.8h2.8v-1.11h-4.08v7.17h4.1v-1.1h-2.82v-2.05h2.37z"/><path id="k3j9d" d="M149.33 20.76l4.34-2.5 15 25.98-4.34 2.5z"/><path id="k3j9e" d="M172.22 36.91c0 4.67-1.26 8.52-3.79 11.55a12.22 12.22 0 0 1-9.85 4.54c-4.04 0-7.3-1.52-9.82-4.56-2.5-3.03-3.76-6.88-3.76-11.53V30.1c0-4.63 1.25-8.47 3.75-11.52a12.05 12.05 0 0 1 9.78-4.57c4.05 0 7.34 1.52 9.88 4.57 2.54 3.05 3.81 6.89 3.81 11.52zm-6.52-6.87c0-2.95-.63-5.37-1.9-7.27a6 6 0 0 0-5.27-2.83c-2.2 0-3.93.94-5.16 2.83-1.23 1.9-1.85 4.32-1.85 7.27v6.87c0 3 .62 5.45 1.86 7.34a5.88 5.88 0 0 0 5.2 2.84c2.24 0 3.98-.95 5.24-2.84 1.25-1.89 1.88-4.34 1.88-7.34zM205 52.52h-6.67l-13.4-25.9-.14.03v25.87h-6.66v-38.4h6.66L198.2 40l.14-.03V14.12H205z"/><linearGradient id="k3j9b" x1="129" x2="222" y2="93" gradientUnits="userSpaceOnUse"><stop offset="0" stop-color="#56ccf2"/><stop offset=".7" stop-color="#3b97ee"/><stop offset="1" stop-color="#2f80ed"/></linearGradient></defs><g><g transform="translate(-129)"><g><use fill="url(#k3j9b)" xlink:href="#k3j9a"/></g><g><use fill="#fff" xlink:href="#k3j9c"/></g><g><use fill="#fff" xlink:href="#k3j9d"/></g><g><use fill="#fff" xlink:href="#k3j9e"/></g></g></g></svg>