<svg xmlns="http://www.w3.org/2000/svg" xmlns:xlink="http://www.w3.org/1999/xlink" width="48" height="52" viewBox="0 0 48 52"><defs><path id="u2tha" d="M685.08 329.52a20.05 20.05 0 0 1 26.68-.72l-6.1.24c-.8.03-1.4.7-1.37 1.51.03.8.66 1.41 1.42 1.41h.05l9.37-.36a1.44 1.44 0 0 0 1.37-1.46v-.1V329.96l-.35-9.56a1.44 1.44 0 0 0-1.47-1.4c-.79.02-1.4.7-1.36 1.5l.22 6a22.7 22.7 0 0 0-13.54-5.34 22.73 22.73 0 0 0-16.82 6.19 24.54 24.54 0 0 0-7.02 23.52 1.42 1.42 0 0 0 1.71 1.08c.76-.2 1.23-.99 1.04-1.77a21.56 21.56 0 0 1 6.17-20.67z"/><path id="u2thb" d="M721.84 340.08a1.42 1.42 0 1 0-2.74.67c1.77 7.32-.59 15-6.15 20.05a20.36 20.36 0 0 1-26.75.57l6.16-.56a1.42 1.42 0 0 0 1.28-1.55 1.4 1.4 0 0 0-1.54-1.28l-9.32.84c-.77.07-1.35.76-1.27 1.54l.83 9.35c.07.73.69 1.29 1.4 1.29l.13-.01a1.42 1.42 0 0 0 1.28-1.55l-.5-5.68a23.06 23.06 0 0 0 14.62 5.17c5.77 0 11.26-2.12 15.58-6.03 6.32-5.75 9-14.48 7-22.82z"/></defs><g><g transform="translate(-675 -319)"><use fill="#fff" xlink:href="#u2tha"/></g><g transform="translate(-675 -319)"><use fill="#fff" xlink:href="#u2thb"/></g></g></svg>